<svg width="228" height="284" viewBox="0 0 228 284" fill="none" xmlns="http://www.w3.org/2000/svg">
<path d="M142 284C220.424 284 284 220.424 284 142C284 63.5756 220.424 0 142 0C63.5756 0 0 63.5756 0 142C0 220.424 63.5756 284 142 284Z" fill="url(#paint0_linear_269_303)"/>
<path d="M99.8423 54.9557C100.767 57.2482 100.971 59.7678 100.429 62.1794C99.8861 64.591 98.6219 66.7801 96.8046 68.4556C94.9872 70.1311 92.7027 71.2135 90.2551 71.5588C87.8075 71.904 85.3127 71.4959 83.1028 70.3885C80.8928 69.2811 79.0724 67.527 77.8838 65.3597C76.6952 63.1923 76.1948 60.7144 76.4491 58.2557C76.7034 55.7969 77.7002 53.4739 79.3072 51.5957C80.9141 49.7174 83.0549 48.3729 85.4447 47.7412C88.3108 46.7971 91.4342 47.026 94.1321 48.3779C96.83 49.7297 98.8829 52.0947 99.8423 54.9557Z" fill="url(#paint1_linear_269_303)"/>
<path d="M69.0309 161.499C81.547 158.211 88.7136 144.204 85.0381 130.214C81.3625 116.223 68.2366 107.547 55.7205 110.835C43.2044 114.123 36.0377 128.131 39.7133 142.121C43.3889 156.112 56.5148 164.788 69.0309 161.499Z" fill="url(#paint2_linear_269_303)"/>
<path d="M178.26 200.094C178.029 203.235 176.878 206.238 174.951 208.728C173.024 211.219 170.406 213.087 167.424 214.098C164.442 215.11 161.228 215.221 158.183 214.417C155.139 213.614 152.398 211.931 150.304 209.579C148.21 207.227 146.855 204.311 146.408 201.194C145.961 198.077 146.442 194.897 147.791 192.052C149.141 189.206 151.298 186.822 153.994 185.195C156.691 183.568 159.806 182.772 162.953 182.905C167.262 183.156 171.295 185.107 174.165 188.331C177.036 191.554 178.508 195.785 178.26 200.094Z" fill="url(#paint3_linear_269_303)"/>
<path d="M195.073 216.94C194.244 218.167 193.081 219.131 191.722 219.718C190.362 220.304 188.863 220.488 187.401 220.249C185.94 220.01 184.578 219.357 183.476 218.367C182.375 217.378 181.58 216.093 181.185 214.666C180.791 213.239 180.814 211.729 181.252 210.314C181.689 208.899 182.523 207.64 183.654 206.684C184.785 205.729 186.167 205.117 187.635 204.923C189.102 204.728 190.595 204.958 191.937 205.585C193.856 206.678 195.263 208.486 195.851 210.615C196.439 212.743 196.16 215.018 195.073 216.94Z" fill="url(#paint4_linear_269_303)"/>
<path d="M91.5178 253.574C96.538 247.274 94.007 236.907 85.8645 230.419C77.722 223.93 67.0514 223.777 62.0312 230.077C57.0111 236.377 59.5422 246.744 67.6847 253.233C75.8272 259.721 86.4976 259.874 91.5178 253.574Z" fill="url(#paint5_linear_269_303)"/>
<path d="M90.0554 211.164C90.7227 212.022 91.1358 213.049 91.2478 214.13C91.3598 215.211 91.1663 216.301 90.689 217.277C90.2118 218.253 89.4702 219.076 88.5485 219.651C87.6269 220.226 86.5623 220.531 85.4758 220.531C84.3894 220.531 83.3247 220.226 82.403 219.651C81.4814 219.076 80.7398 218.253 80.2626 217.277C79.7854 216.301 79.5918 215.211 79.7038 214.13C79.8158 213.049 80.2289 212.022 80.8961 211.164C82.1283 209.983 83.7691 209.324 85.4758 209.324C87.1826 209.324 88.8233 209.983 90.0554 211.164Z" fill="url(#paint6_linear_269_303)"/>
<defs>
<linearGradient id="paint0_linear_269_303" x1="235.004" y1="57.1827" x2="25.9722" y2="247.833" gradientUnits="userSpaceOnUse">
<stop stop-color="#080D24"/>
<stop offset="0.24" stop-color="#12032C"/>
<stop offset="0.29" stop-color="#14002E"/>
<stop offset="0.34" stop-color="#1B0031"/>
<stop offset="0.43" stop-color="#2F0037"/>
<stop offset="0.53" stop-color="#500043"/>
<stop offset="0.65" stop-color="#7E0053"/>
<stop offset="0.76" stop-color="#B00064"/>
<stop offset="0.83" stop-color="#C2136E"/>
<stop offset="0.97" stop-color="#F04588"/>
<stop offset="1" stop-color="#FC538F"/>
</linearGradient>
<linearGradient id="paint1_linear_269_303" x1="101.756" y1="42.2519" x2="77.5088" y2="70.3884" gradientUnits="userSpaceOnUse">
<stop stop-color="#5D0047"/>
<stop offset="0.07" stop-color="#500043"/>
<stop offset="0.28" stop-color="#2F0037"/>
<stop offset="0.46" stop-color="#1B0030"/>
<stop offset="0.58" stop-color="#14002E"/>
<stop offset="0.65" stop-color="#12032C"/>
<stop offset="1" stop-color="#080D24"/>
</linearGradient>
<linearGradient id="paint2_linear_269_303" x1="72.3531" y1="124.489" x2="38.3822" y2="164.263" gradientUnits="userSpaceOnUse">
<stop stop-color="#5D0047"/>
<stop offset="0.27" stop-color="#3E003C"/>
<stop offset="0.53" stop-color="#270034"/>
<stop offset="0.78" stop-color="#190030"/>
<stop offset="1" stop-color="#14002E"/>
</linearGradient>
<linearGradient id="paint3_linear_269_303" x1="180.236" y1="179.172" x2="152.946" y2="209.85" gradientUnits="userSpaceOnUse">
<stop stop-color="#5D0047"/>
<stop offset="0.1" stop-color="#4E0042"/>
<stop offset="0.31" stop-color="#350039"/>
<stop offset="0.52" stop-color="#220033"/>
<stop offset="0.75" stop-color="#18002F"/>
<stop offset="1" stop-color="#14002E"/>
</linearGradient>
<linearGradient id="paint4_linear_269_303" x1="204.484" y1="201.508" x2="184.597" y2="216.313" gradientUnits="userSpaceOnUse">
<stop stop-color="#5D0047"/>
<stop offset="0.11" stop-color="#500043"/>
<stop offset="0.42" stop-color="#2F0037"/>
<stop offset="0.69" stop-color="#1B0030"/>
<stop offset="0.87" stop-color="#14002E"/>
</linearGradient>
<linearGradient id="paint5_linear_269_303" x1="85.147" y1="222.639" x2="70.187" y2="252.246" gradientUnits="userSpaceOnUse">
<stop stop-color="#5D0047"/>
<stop offset="0.22" stop-color="#580045"/>
<stop offset="0.47" stop-color="#4A0041"/>
<stop offset="0.73" stop-color="#330039"/>
<stop offset="1" stop-color="#14002E"/>
</linearGradient>
<linearGradient id="paint6_linear_269_303" x1="87.5896" y1="206.235" x2="87.1998" y2="219.338" gradientUnits="userSpaceOnUse">
<stop stop-color="#5D0047"/>
<stop offset="0.13" stop-color="#500043"/>
<stop offset="0.49" stop-color="#2F0037"/>
<stop offset="0.79" stop-color="#1B0030"/>
<stop offset="1" stop-color="#14002E"/>
</linearGradient>
</defs>
</svg>
